<?xml version="1.0" standalone="no"?>
<!DOCTYPE svg PUBLIC "-//W3C//DTD SVG 20010904//EN"
 "http://www.w3.org/TR/2001/REC-SVG-20010904/DTD/svg10.dtd">
<svg version="1.0" xmlns="http://www.w3.org/2000/svg"
 width="959.000000pt" height="260.000000pt" viewBox="0 0 959.000000 260.000000"
 preserveAspectRatio="xMidYMid meet">

<g transform="translate(0.000000,260.000000) scale(0.100000,-0.100000)"
fill="#000000" stroke="none">
<path d="M2698 1684 c-5 -4 -8 -118 -8 -253 0 -166 3 -242 10 -235 7 7 9 98 8
253 -2 133 -6 239 -10 235z"/>
<path d="M7214 1390 c0 -168 2 -236 3 -152 2 83 2 221 0 305 -1 83 -3 15 -3
-153z"/>
<path d="M4804 1505 c0 -99 2 -138 3 -87 2 51 2 132 0 180 -1 48 -3 6 -3 -93z"/>
<path d="M7770 1639 c-7 -11 -10 -23 -7 -25 2 -2 9 7 15 21 14 30 7 33 -8 4z"/>
<path d="M3042 1390 c-2 -188 0 -208 18 -237 30 -50 72 -66 180 -71 54 -2 113
1 138 7 57 16 101 57 107 101 l6 35 -15 -40 c-29 -75 -90 -99 -236 -93 -100 4
-157 25 -176 66 -5 9 -11 112 -14 227 l-6 210 -2 -205z"/>
<path d="M5502 1395 c-2 -226 4 -253 67 -289 43 -25 189 -34 267 -17 60 14
115 65 113 104 l-2 22 -4 -22 c-7 -35 -55 -80 -99 -92 -51 -14 -186 -14 -235
0 -21 7 -51 25 -66 41 l-28 29 -5 212 -6 212 -2 -200z"/>
<path d="M8110 1395 c0 -8 4 -15 10 -15 5 0 7 7 4 15 -4 8 -8 15 -10 15 -2 0
-4 -7 -4 -15z"/>
<path d="M2292 1242 c-2 -69 0 -74 31 -107 17 -19 46 -37 62 -40 26 -6 25 -4
-10 13 -59 28 -69 46 -76 131 l-6 76 -1 -73z"/>
<path d="M8020 1280 c36 -12 110 -12 110 0 0 6 -29 10 -67 9 -50 -1 -61 -3
-43 -9z"/>
<path d="M4804 1185 c0 -55 1 -76 3 -47 2 29 2 74 0 100 -2 26 -3 2 -3 -53z"/>
<path d="M6752 1260 c0 -14 2 -19 5 -12 2 6 2 18 0 25 -3 6 -5 1 -5 -13z"/>
<path d="M7673 1165 c0 -44 2 -61 4 -37 2 23 2 59 0 80 -2 20 -4 1 -4 -43z"/>
<path d="M2671 1149 c-13 -17 -37 -37 -54 -44 -18 -8 -26 -14 -19 -15 26 0 72
31 87 60 20 38 15 38 -14 -1z"/>
<path d="M4266 1153 c-14 -44 -29 -48 -240 -54 l-201 -6 202 1 203 1 26 26
c15 15 24 33 22 40 -3 9 -7 7 -12 -8z"/>
<path d="M2458 1083 c23 -2 61 -2 85 0 23 2 4 4 -43 4 -47 0 -66 -2 -42 -4z"/>
</g>
</svg>
